<?xml version="1.0" encoding="utf-8"?>
<!-- Generator: Adobe Illustrator 16.0.0, SVG Export Plug-In . SVG Version: 6.00 Build 0)  -->
<!DOCTYPE svg PUBLIC "-//W3C//DTD SVG 1.1//EN" "http://www.w3.org/Graphics/SVG/1.1/DTD/svg11.dtd">
<svg version="1.1" id="Capa_1" xmlns="http://www.w3.org/2000/svg" xmlns:xlink="http://www.w3.org/1999/xlink" x="0px" y="0px"
	 width="3429.92px" height="2590.871px" viewBox="0 0 3429.92 2590.871" enable-background="new 0 0 3429.92 2590.871"
	 xml:space="preserve">
<g>
	<g>
		<path fill="#303030" d="M2556.993,1675.413c-121.433,0-220.225,98.817-220.225,220.224c0,121.433,98.792,220.225,220.225,220.225
			c121.406,0,220.224-98.792,220.224-220.225C2777.217,1774.23,2678.399,1675.413,2556.993,1675.413z M2556.993,1960.408
			c-35.727,0-64.771-29.045-64.771-64.771c0-35.726,29.045-64.771,64.771-64.771c35.726,0,64.771,29.046,64.771,64.771
			C2621.765,1931.363,2592.719,1960.408,2556.993,1960.408z"/>
		<path fill="#303030" d="M2535.901,759.98h-380.493c-28.631,0-51.817,23.217-51.817,51.817v1010.439
			c0,28.602,23.187,51.817,51.817,51.817h54.954c25.65,0,48.371-18.475,51.686-43.913
			c20.338-155.816,144.623-252.454,294.971-252.454c150.346,0,274.632,96.642,294.969,252.454
			c3.315,25.442,26.011,43.913,51.687,43.913h54.899c28.602,0,51.817-23.217,51.817-51.817v-505.22
			c0-12.176-4.275-23.94-12.073-33.241l-422.677-505.22C2565.803,766.797,2551.239,759.98,2535.901,759.98z M2207.226,1174.519
			V915.432c0-28.601,23.187-51.817,51.817-51.817h228.255c15.363,0,29.951,6.842,39.794,18.652l215.897,259.088
			c28.11,33.757,4.119,84.981-39.82,84.981h-444.126C2230.412,1226.337,2207.226,1203.15,2207.226,1174.519z"/>
		<path fill="#303030" d="M471.343,1874.08h132.68c25.65,0,48.372-18.475,51.687-43.913
			c20.337-155.816,144.623-252.453,294.97-252.453s274.633,96.641,294.97,252.453c3.314,25.442,26.011,43.913,51.687,43.913h650.803
			c28.605,0,51.818-23.216,51.818-51.817V526.828c0-28.602-23.217-51.818-51.818-51.818H471.343
			c-28.631,0-51.818,23.217-51.818,51.818v1295.435C419.524,1850.868,442.712,1874.08,471.343,1874.08z"/>
		<path fill="#303030" d="M950.653,1675.413c-121.432,0-220.225,98.817-220.225,220.224c0,121.433,98.793,220.225,220.225,220.225
			c121.406,0,220.225-98.792,220.225-220.225C1170.877,1774.23,1072.06,1675.413,950.653,1675.413z M950.653,1960.408
			c-35.727,0-64.771-29.045-64.771-64.771c0-35.726,29.045-64.771,64.771-64.771s64.771,29.046,64.771,64.771
			C1015.425,1931.363,986.38,1960.408,950.653,1960.408z"/>
	</g>
</g>
</svg>
